<?xml version="1.0" encoding="iso-8859-1"?>
<!-- Generator: Adobe Illustrator 19.0.0, SVG Export Plug-In . SVG Version: 6.00 Build 0)  -->
<svg version="1.1" id="Layer_1" xmlns="http://www.w3.org/2000/svg" xmlns:xlink="http://www.w3.org/1999/xlink" x="0px" y="0px"
	 viewBox="0 0 511.99 511.99" style="enable-background:new 0 0 511.99 511.99;" xml:space="preserve">
<g>
	<g>
		<circle cx="186.388" cy="44.388" r="44.388"/>
	</g>
</g>
<g>
	<g>
		<path d="M325.838,132.101c-2.547-6.311-7.944-11.036-14.537-12.727l-72.713-18.564c-9.207-2.351-18.787-2.868-28.194-1.523
			l-41.927,5.997c-14.732,2.144-25.386,14.661-25.658,29.074l60.938-17.041l-70.369,41.028l-66.501-32.652h-0.001
			c-9.883-4.85-21.935-1.411-27.711,8.071c-6.639,10.903-2.352,24.888,8.833,30.379l78.361,38.438
			c6.385,3.136,14.021,2.885,20.205-0.71c0.008-0.004,0.016-0.008,0.024-0.012l76.024-45.724l-67.257,65.841l6.493,45.982
			l35.449-5.695l-84.026,62.274c-3.314,2.458-5.991,5.677-7.799,9.388L51.994,440.429c-6.219,12.759-0.919,28.143,11.842,34.364
			c12.736,6.208,28.13,0.942,34.364-11.842l50.724-100.858l108.106-79.426c11.987-8.806,18.168-23.552,16.026-38.271
			c-0.434-2.979-0.842-5.789-1.181-8.115l52.338-84.926C327.783,145.559,328.387,138.413,325.838,132.101z M262.262,170.245
			l-2.908-19.977l13.139,3.371L262.262,170.245z"/>
	</g>
</g>
<g>
	<g>
		<path d="M475.419,366.592c-0.209-1.68-1.59-3.027-3.341-3.13c-1.828-0.108-3.654,1.172-3.796,3.581
			c-0.213,3.622-0.747,7.215-1.474,10.521c-1.843,8.579-5.149,16.189-8.481,21.218c-2.972,4.754-8.143,10.47-13.224,13.576
			c-2.688-3.091-10.181-9.081-29.716-13.156c-2.721-0.773,3.769,0.293-84.303-12.736c0,0-4.359-5.904-9.312-12.535
			c-0.849,1.144-1.707,2.245-2.528,3.243c-6.084,7.404-14.321,14.806-23.41,11.595c-10.43-3.684-10.793-17.825-10.912-22.473
			c-0.098-3.793,0.124-8.569,0.638-12.486l-0.232,0.055c-8.704,2.068-15.53,8.815-17.701,17.494l-9.844,6.027
			c-1.791,1.097-3.024,2.911-3.381,4.982c-0.315,1.824,0.076,3.687,1.074,5.223c-9.271,2.262-19.801,4.891-27.936,6.934
			l-1.333-11.089l14.05-63.444l-62.984,46.679c-2.308,10.424-3.27,13.166-2.623,18.554l12.52,104.131
			c1.691,14.059,14.453,24.144,28.586,22.449c14.093-1.695,24.143-14.493,22.449-28.586l-4.846-40.299l30.304-45.465
			c4.858,4.382,11.871,5.697,18.077,3.175c3.042-1.236,6.462-1.148,9.444,0.225c2.981,1.374,5.263,3.917,6.302,7.031
			c3.972,11.9,10.363,29.933,16.197,41.51l-26.057,48.027c-2.597,4.788-0.822,10.775,3.966,13.373
			c4.789,2.597,10.775,0.821,13.374-3.967l25.822-47.595c11.736-1.318,31.804-3.753,51.456-6.26
			c0.672-11.702,6.8-23.886,17.849-32.786c2.166-1.746,5.556-1.545,7.45,0.803c1.836,2.279,1.476,5.614-0.802,7.45
			c-4.493,3.618-8.019,7.972-10.391,12.612c-3.67,8.787-5.419,23.631-0.576,32.98c-1.822,3.36,0.223-0.41-12.69,23.39
			c-2.597,4.788-0.822,10.775,3.966,13.373c4.789,2.597,10.775,0.821,13.374-3.967c11.681-21.53,9.136-16.838,15.984-29.462
			c12.37-3.772,19.194-10.294,25.338-23.978c2.711-6.356,3.262-12.426,2.735-18.597c12.901-7.614,21.27-17.958,26.014-29.846
			c2.909-6.864,5.101-16.245,5.428-26.304C476.064,374.799,475.93,370.692,475.419,366.592z"/>
	</g>
</g>
<g>
	<g>
		<path d="M310.01,348.642c-6.528-2.308-13.136-0.458-14.321,2.9c-1.185,3.357-3.206,25.931,3.323,28.238
			c6.529,2.307,19.136-16.529,20.321-19.885C320.518,356.539,316.539,350.949,310.01,348.642z"/>
	</g>
</g>
<g>
</g>
<g>
</g>
<g>
</g>
<g>
</g>
<g>
</g>
<g>
</g>
<g>
</g>
<g>
</g>
<g>
</g>
<g>
</g>
<g>
</g>
<g>
</g>
<g>
</g>
<g>
</g>
<g>
</g>
</svg>
