<?xml version="1.0" encoding="UTF-8" standalone="yes"?>
<svg xmlns="http://www.w3.org/2000/svg" viewBox="0 0 50 50" width="500" height="500" fill="#000000">
  <path d="M 42 2 C 38.699219 2 36 4.699219 36 8 C 36 11.300781 38.699219 14 42 14 C 45.300781 14 48 11.300781 48 8 C 48 4.699219 45.300781 2 42 2 Z M 42 4 C 44.222656 4 46 5.777344 46 8 C 46 10.222656 44.222656 12 42 12 C 39.777344 12 38 10.222656 38 8 C 38 5.777344 39.777344 4 42 4 Z M 25.4375 5.03125 C 24.210938 5.089844 23.011719 5.582031 22.0625 6.46875 L 13.5 14.875 C 12.078125 16.273438 12.097656 18.613281 13.53125 20 C 14.886719 21.308594 17.054688 21.308594 18.4375 20.03125 L 25.5 13.5 L 28.46875 15.90625 L 24.96875 20 C 19.8125 20.011719 15.324219 22.828125 12.90625 27 L 7 27 C 6.96875 27 6.9375 27 6.90625 27 C 6.355469 27.027344 5.925781 27.496094 5.953125 28.046875 C 5.980469 28.597656 6.449219 29.027344 7 29 L 18 29 C 18.359375 29.003906 18.695313 28.816406 18.878906 28.503906 C 19.058594 28.191406 19.058594 27.808594 18.878906 27.496094 C 18.695313 27.183594 18.359375 26.996094 18 27 L 15.28125 27 C 17.460938 23.972656 20.992188 22 25 22 C 31.617188 22 37 27.382813 37 34 C 37 40.617188 31.617188 46 25 46 C 21.96875 46 19.207031 44.859375 17.09375 43 L 14.28125 43 C 16.851563 46.054688 20.707031 48 25 48 C 28.28125 48 31.296875 46.867188 33.6875 44.96875 C 34.019531 45.367188 34.433594 45.691406 34.9375 45.90625 C 36.628906 46.628906 38.640625 45.84375 39.375 44.15625 L 43.15625 35.40625 C 44.140625 33.144531 43.125 30.476563 40.875 29.46875 L 37.65625 28.03125 C 37.148438 26.960938 36.53125 25.933594 35.78125 25.03125 L 38.90625 20.6875 C 40.695313 18.214844 40.203125 14.730469 37.78125 12.875 L 28.9375 6.125 C 27.90625 5.335938 26.664063 4.972656 25.4375 5.03125 Z M 25.5625 7.03125 C 26.324219 6.996094 27.105469 7.226563 27.75 7.71875 L 36.5625 14.46875 C 38.140625 15.679688 38.480469 17.890625 37.3125 19.5 L 34.34375 23.59375 C 32.4375 21.882813 30.0625 20.683594 27.4375 20.21875 L 30.6875 16.4375 C 30.863281 16.230469 30.945313 15.957031 30.917969 15.683594 C 30.886719 15.414063 30.746094 15.167969 30.53125 15 L 26.0625 11.4375 C 25.683594 11.136719 25.144531 11.148438 24.78125 11.46875 L 17.09375 18.5625 C 16.476563 19.132813 15.542969 19.117188 14.9375 18.53125 C 14.292969 17.910156 14.269531 16.941406 14.90625 16.3125 L 23.4375 7.90625 L 23.46875 7.90625 C 24.066406 7.359375 24.800781 7.066406 25.5625 7.03125 Z M 38.59375 30.65625 L 40.03125 31.3125 C 41.304688 31.882813 41.867188 33.347656 41.3125 34.625 L 37.53125 43.34375 C 37.226563 44.042969 36.453125 44.363281 35.75 44.0625 C 35.519531 43.964844 35.332031 43.804688 35.1875 43.625 C 37.558594 41.117188 39 37.71875 39 34 C 39 32.84375 38.859375 31.730469 38.59375 30.65625 Z M 11.34375 31 C 11.199219 31.652344 11.113281 32.320313 11.0625 33 L 3 33 C 2.96875 33 2.9375 33 2.90625 33 C 2.355469 33.027344 1.925781 33.496094 1.953125 34.046875 C 1.980469 34.597656 2.449219 35.027344 3 35 L 23 35 C 23.359375 35.003906 23.695313 34.816406 23.878906 34.503906 C 24.058594 34.191406 24.058594 33.808594 23.878906 33.496094 C 23.695313 33.183594 23.359375 32.996094 23 33 L 13.0625 33 C 13.125 32.3125 13.238281 31.648438 13.40625 31 Z M 11.34375 37 C 11.496094 37.691406 11.6875 38.351563 11.9375 39 L 8 39 C 7.96875 39 7.9375 39 7.90625 39 C 7.355469 39.027344 6.925781 39.496094 6.953125 40.046875 C 6.980469 40.597656 7.449219 41.027344 8 41 L 18 41 C 18.359375 41.003906 18.695313 40.816406 18.878906 40.503906 C 19.058594 40.191406 19.058594 39.808594 18.878906 39.496094 C 18.695313 39.183594 18.359375 38.996094 18 39 L 14.125 39 C 13.828125 38.359375 13.585938 37.699219 13.40625 37 Z"/>
</svg>
