<?xml version="1.0" encoding="iso-8859-1"?>
<!-- Generator: Adobe Illustrator 16.0.0, SVG Export Plug-In . SVG Version: 6.00 Build 0)  -->
<!DOCTYPE svg PUBLIC "-//W3C//DTD SVG 1.1//EN" "http://www.w3.org/Graphics/SVG/1.1/DTD/svg11.dtd">
<svg version="1.1" id="Capa_1" xmlns="http://www.w3.org/2000/svg" xmlns:xlink="http://www.w3.org/1999/xlink" x="0px" y="0px"
	 width="546.889px" height="546.889px" viewBox="0 0 546.889 546.889" style="enable-background:new 0 0 546.889 546.889;"
	 xml:space="preserve">
<g>
	<g>
		<circle cx="125.9" cy="84.485" r="45.479"/>
		<path d="M183.782,546.889c67.903,0,126.483-39.617,154.09-96.964l14.297,24.002c7.275,11.925,23.801,16.782,36.432,9.285
			c12.613-7.487,16.314-23.342,9.275-36.413L315.2,307.549c-4.811-8.108-13.283-12.718-22.053-12.995H177.203V179.077l56.744-29.319
			c4.475-2.314,7.86-6.302,9.41-11.092l28.687-88.453c3.26-10.05-2.247-20.837-12.287-24.098
			c-10.051-3.251-20.837,2.238-24.098,12.288l-26.269,80.975l-41.033,21.2c-1.09-0.306-2.18-0.516-3.222-0.516H96.476
			c-5.278,0-9.419,4.274-9.237,9.562l2.812,83.509c-0.21,0.115-0.392,0.096-0.593,0.239C43.29,263.982,12.833,316.414,12.833,375.94
			C12.843,470.36,89.391,546.889,183.782,546.889z M91.542,277.217l1.54,45.699c2.094,24.222,22.405,41.492,46.397,41.367h147.397
			l27.51,46.196c-15.279,57.911-67.893,100.636-130.604,100.636c-74.654,0-135.175-60.511-135.175-135.185
			C48.616,336.964,65.159,301.897,91.542,277.217z"/>
		<circle cx="333.722" cy="39.005" r="39.005"/>
		<path d="M363.155,119.617c0,7.928,6.416,14.344,14.344,14.344h9.744c7.383,15.568,17.633,46.053,10.643,86.445
			c-0.449,2.601,1.291,5.078,3.893,5.527c0.277,0.048,0.555,0.067,0.822,0.067c2.285,0,4.303-1.635,4.705-3.958
			c1.205-6.952,1.855-13.569,2.199-19.948h34.32v22.31c0,2.639,2.141,4.781,4.781,4.781c2.639,0,4.781-2.142,4.781-4.781v-22.31
			h31.947c0.344,6.378,0.994,12.986,2.199,19.948c0.402,2.324,2.42,3.958,4.705,3.958c0.268,0,0.545-0.019,0.822-0.067
			c2.602-0.449,4.342-2.926,3.893-5.527c-6.961-40.268,3.289-70.839,10.672-86.445h12.086c7.928,0,14.344-6.416,14.344-14.344
			c0-7.927-6.416-14.344-14.344-14.344H377.499C369.581,105.273,363.155,111.69,363.155,119.617z M453.405,133.961h43.625
			c-2.744,6.312-5.574,14.325-7.812,23.734h-35.82v-23.734H453.405z M453.405,167.248h33.871c-1.311,7.669-2.104,16.113-2.15,25.274
			h-31.729v-25.274H453.405z M443.843,192.531h-34.1c-0.047-9.161-0.842-17.604-2.15-25.273h36.25V192.531z M443.843,133.961v23.734
			h-38.191c-2.238-9.41-5.068-17.423-7.812-23.734H443.843z"/>
	</g>
</g>
<g>
</g>
<g>
</g>
<g>
</g>
<g>
</g>
<g>
</g>
<g>
</g>
<g>
</g>
<g>
</g>
<g>
</g>
<g>
</g>
<g>
</g>
<g>
</g>
<g>
</g>
<g>
</g>
<g>
</g>
</svg>
